<svg xmlns="http://www.w3.org/2000/svg" width="1920.018" height="1872.268" viewBox="0 0 1920.018 1872.268">
  <path id="Trazado_6270" data-name="Trazado 6270" d="M3089.369,2804.479h-.015v-151.46a13.705,13.705,0,0,0-4.386-1.024,27.646,27.646,0,0,1-6.026-1.082,4.1,4.1,0,0,0-4.475,1.521c-1,1.107-1.962,2.264-2.94,3.4a7.9,7.9,0,0,1-4.528,3.08,5.073,5.073,0,0,0-3.589,3.278c-.481.961-.846,2.03-1.259,3.054s-.776,2.092-1.237,3.073c-.456,1.391-1.534,2.193-2.632,1.958-.979-.256-1.959.436-2.379,1.678-.595,1.215-1.2,2.426-1.761,3.67-1.458,3.537-4.236,5.655-7.193,5.485a11.017,11.017,0,0,0-2.241-.007,7.3,7.3,0,0,1-5.565-1.519,10.574,10.574,0,0,0-1.163-.744,2.9,2.9,0,0,0-3.888.9c-.555.687-1.07,1.431-1.612,2.138a25.209,25.209,0,0,1-6.622,6.1c-2.089,1.311-2.656,1.089-4.149-1.245-.212-.33-.412-.676-.612-1.016a10.641,10.641,0,0,0-6.159-5.184,3.986,3.986,0,0,1-2.126-.854c-1.687-1.987-3.623-1.629-5.5-1.269a9.848,9.848,0,0,1-4.437-.225,32.888,32.888,0,0,0-10.226-.325,15.734,15.734,0,0,0-2.553.3,5.57,5.57,0,0,1-5.2-1.284,5.053,5.053,0,0,0-3.392-.991c-3.66.106-6.618-2.027-9.286-5.121a6.628,6.628,0,0,0-4.278-2.675c-.949-.1-1.872-.687-2.82-.767a4.4,4.4,0,0,1-3.06-2.083c-.991-1.295-2.092-2.436-3.108-3.6a5.231,5.231,0,0,0-1.4.53c-1.964,1.539-4.1,1.373-6.244,1.373a10.98,10.98,0,0,1-7.125-3.527,9.128,9.128,0,0,0-6.656-2.627,7.024,7.024,0,0,1-5.841-2.984,4.247,4.247,0,0,0-5.008-1.835c-.1.037-.216.042-.316.069a8.989,8.989,0,0,1-8.581-2.112,2.694,2.694,0,0,0-3.356-.427,3.26,3.26,0,0,1-3.919-.763,50.944,50.944,0,0,1-7.182-6.554,2.615,2.615,0,0,0-3.563-.824c-2.492,1.3-5.02,2.472-7.668,3.759a9.255,9.255,0,0,1-3.438-2.8c-.465-.6-1.048-1.034-1.49-1.659-1.885-2.659-3.977-2.276-6.177-.93-.971.595-1.966,1.109-2.966,1.62a2.552,2.552,0,0,1-3.572-.789c-.158-.2-.35-.352-.5-.558a2.283,2.283,0,0,0-3.537-.524c-1.35.879-2.755,1.634-4.042,2.664-2.975,2.384-6.289,3.614-9.449,5.355-1.678.926-3.452,1.51-5.152,2.37a2.57,2.57,0,0,1-3.068-.183,16.582,16.582,0,0,0-5.306-2.967c-1.918-.639-3.139-2.93-4.45-4.83a17.1,17.1,0,0,1-1.633-3.243c-.557-1.69-2-2.458-3.238-1.726-2.25.913-4.525,1.727-6.763,2.688-3.863,1.667-7.714,3.407-11.563,5.14a5.222,5.222,0,0,1-4.665.472c-1.239-.728-2.679-.121-3.408,1.437a6.264,6.264,0,0,1-.912,1.236,1.692,1.692,0,0,1-2.9.169c-1.555-1.785-3.006-3.727-4.455-5.67a3.418,3.418,0,0,1-.482-1.6,4.542,4.542,0,0,0-2.362-3.8,3.82,3.82,0,0,0-4.034-.405,13.1,13.1,0,0,0-1.725,1.157q-3.1,2.3-6.179,4.635c-2.808,2.123-5.625,4.2-8.854,4.877a1.61,1.61,0,0,0-.912.387c-2.163,2.424-4.916,2.654-7.416,3.836l-6.752,3.194a20.733,20.733,0,0,1-7.5-8.5,17.975,17.975,0,0,0-5.89-7.214c-1.145-.776-2.2-1.8-3.309-2.679-2.026-1.608-4.018-3.316-6.107-4.756-2.632-1.811-4.288-1.419-7.588,1.465a67.257,67.257,0,0,1-6.591-2.551c-1.578-.788-2.992-.824-4.17.713-2.41,3.148-5.44,4.521-8.44,6.053a45.265,45.265,0,0,0-4.083,2.649c-2.01-3.1-4.739-4.668-6.909-7.186-3.283-3.8-7.025-6.609-10.783-10.289a36.6,36.6,0,0,1-4.9,1.347,8.574,8.574,0,0,0-3.834,2.047,14.9,14.9,0,0,1-5.667,2.884,36.383,36.383,0,0,0-5.236,1.983c-2.019.824-2.531.66-3.87-1.6a30.25,30.25,0,0,1-1.457-2.884c-1-2.322-2.811-3.744-4.772-3.739-3.412-.207-6.817-.6-10.223-.928a2.848,2.848,0,0,0-2.946,1.208,12.666,12.666,0,0,1-5.765,4.575,4.926,4.926,0,0,0-2.93,3.683c-.035.137-.1.264-.13.4-1.277,5.15-3.842,9.053-6.543,12.846a5.613,5.613,0,0,1-2.714,2.142,55.261,55.261,0,0,0-18.283,11.425,4.83,4.83,0,0,1-3.25,1.607c-5.575-.034-11.035,1.477-16.535,2.391a7.418,7.418,0,0,1-4.664-1.135c-.631-.324-1.1-1.323-1.585-2.068s-.892-1.572-1.461-2.588a22.443,22.443,0,0,0-3.318,5.991,29.309,29.309,0,0,1-7.965,11.739c-1.755,1.647-3.5,3.316-5.332,5.052a17.917,17.917,0,0,1-3.287-1.767c-2.161-1.775-4.6-2.227-6.94-3.18a3.453,3.453,0,0,0-4.442,1.3c-.465.59-.988,1.1-1.626,1.8-2.4-1.343-4.728-.387-7.048.8a8.869,8.869,0,0,1-1.863.644c-.761.3-1.562-.264-1.828-1.289a6.942,6.942,0,0,0-2.751-4.3,14.38,14.38,0,0,0-3.382,9.413c.021,1.888-.138,3.768-.224,5.87-2.638.527-4.639,2.762-7.27,3.158-2.276.343-4.429,2.047-6.676,2.961-3.381,1.373-6.781,2.583-10.181,3.86-.411.155-.835.256-1.235.453-3.212,1.591-6.428,3.172-9.623,4.82a31.829,31.829,0,0,0-2.889,1.906,54.232,54.232,0,0,0,.043,5.859,11.47,11.47,0,0,0,2.3,5.659,14.159,14.159,0,0,1,2.65,5.24c-.447.428-.944.894-1.422,1.389-.5.525-1.191.945-1.441,1.648a7.149,7.149,0,0,1-3.357,3.845,7.339,7.339,0,0,0-3.1,4.224,16.193,16.193,0,0,1-1.676,3.184c-1,1.715-2.083,3.33-3,5.115a3.162,3.162,0,0,1-2.638,2.1c-1.28.065-2.558.244-3.838.32a10.207,10.207,0,0,1-5.336-1.163c-3.7-1.88-7.4-3.783-11.182-5.325a32.7,32.7,0,0,0-6.919-1.648,7.071,7.071,0,0,1-3.368-1.217,7.393,7.393,0,0,0-2.069-1.151,19.552,19.552,0,0,1-7.207-5.521,11.252,11.252,0,0,1-2.944-7.084,81.17,81.17,0,0,0-2.031-12.843,6.264,6.264,0,0,1,.065-1.215c.773-.618,1.693-1.282,2.56-2.06a1.98,1.98,0,0,0,.439-.36,3.384,3.384,0,0,0,.317-3.751,9.662,9.662,0,0,0-.889-1.822q-1.944-2.925-3.944-5.767a6.069,6.069,0,0,0-1.263-1.324c-.837-.706-1.932-.346-2.445.8a2.893,2.893,0,0,0-.175.518q-.33,1.448-.54,2.944a10.241,10.241,0,0,0-2.861.056,16.6,16.6,0,0,0-2.649,1.536,80.233,80.233,0,0,0-9.592,5.984,3.872,3.872,0,0,1-1.8.844c-2.656.221-4.853,2.059-7.11,3.672-1.688,1.2-3.337,2.5-5.149,3.866-1.615-1.594-3.4-3.173-5.025-5.019a5.966,5.966,0,0,0-4.379-2.311c-1.977.174-3.84-1.284-4.739-3.708-1.269-3.389-3.364-5.537-5.385-7.9-2.347-2.746-4.566-5.7-7.026-8.8-2.278.778-3.747-1.087-4.84-3.891a17,17,0,0,0-.892-1.8c-.054-.107-.179-.138-.136-.107-1.944.713-3.786,1.336-5.6,2.087a5.7,5.7,0,0,1-4.7.265c-2.727.875-4.887-1-7.206-2.521a55.284,55.284,0,0,0-8.929-4.836,13.017,13.017,0,0,1-6.718-6.316,8.137,8.137,0,0,0-2.967-3.248,3.158,3.158,0,0,0-2.479-.49,36.381,36.381,0,0,1-4.453.639,4.141,4.141,0,0,1-3.558-1.577,18.793,18.793,0,0,1-3.812-5.832,52.953,52.953,0,0,0-3.253-6.481,6.253,6.253,0,0,0-2.044-2.014,36.49,36.49,0,0,0-3.864-2.124c-2.2-1.1-4.4-2.172-6.624-3.177-1.312-.59-2.664-1.037-4-1.552-1.022-.395-2.041-.8-3.066-1.189-.925-.349-1.856-.66-2.78-1.01a5.8,5.8,0,0,0-6.383,1.665c-.436.412-.873.824-1.288,1.214a2.541,2.541,0,0,1-.6-.4c-2.824-3.393-6-3.315-9.337-1.829-1.617.719-3.292,1.208-4.9,1.965q-6.8,3.19-13.551,6.576a4.506,4.506,0,0,0-1.777,1.785q-1.758,3.114-3.248,6.492a19.44,19.44,0,0,1-3.31,5.281,5.188,5.188,0,0,1-5.01,2.148,14.516,14.516,0,0,1-2.862-.4c-2.018-.826-4.2.179-5.441,2.51-4.191,6.645-3.84,5.295-8.9,7.964-3.575,1.884-7.316,3.34-10.475,6.52a1.169,1.169,0,0,1-.888.427c-1.927-.435-3.854.342-5.717.137a28.251,28.251,0,0,1-6.469-2.266,9.176,9.176,0,0,1-1.287-.789c-.69,1.387-1.361,2.667-1.979,4-.5,1.526-1.687,2.4-2.889,2.123a2.274,2.274,0,0,0-2.474,1.522,58.34,58.34,0,0,1-8.074,9.958,12.236,12.236,0,0,0-1.666,2.577c-.7,1.292-1.285,2.7-1.993,3.982a3.621,3.621,0,0,1-2.991,2.274c-3.532-.167-5.909,2.871-8.475,5.42-.68.676-1.312,1.443-1.812,2-3.119-2.168-6.039-4.239-8.99-6.223a5.931,5.931,0,0,0-2.407-1.03,7.85,7.85,0,0,1-3.919-1.785c-3.415-2.771-7.253-4.237-10.769-6.68-1.006-.7-1.856-.073-3,.137-.231-.879-.492-1.785-.709-2.708-.536-2.269-1.782-2.873-3.182-1.51a5.713,5.713,0,0,0-.726.858q-1.989,2.863-3.953,5.759a7.481,7.481,0,0,0-.565,1.064c-1.194,2.567-.992,3.9.868,5.4.72.581,1.839.659,1.993,1.944a10.7,10.7,0,0,1-.39,3.392,62.488,62.488,0,0,0-1.417,9.442,13.707,13.707,0,0,1-3.964,9.042c-2.877,3.039-6.335,4.107-9.422,6.358a4.065,4.065,0,0,1-2.2.423,23,23,0,0,0-9.046,2.627c-3.3,1.689-6.61,3.341-9.977,4.729a15.25,15.25,0,0,1-4.733.764c-.842.062-1.7-.383-2.542-.37-1.859.228-3.624-1.162-4.42-3.48a19.564,19.564,0,0,0-1.848-3.007,19.039,19.039,0,0,1-2.111-3.821,7.7,7.7,0,0,0-3.392-4.411,7.6,7.6,0,0,1-2.892-3.282,18.259,18.259,0,0,0-2.8-3.477,8.947,8.947,0,0,1,1.883-4.439,20.024,20.024,0,0,0,1.812-3.037,8.129,8.129,0,0,0,.98-4.927,15.674,15.674,0,0,1,.2-3.426,4.359,4.359,0,0,0-2.835-2.682c-5.243-2.472-10.42-5.193-15.806-7.094-3.711-1.31-7.334-3.108-11-4.677a4.912,4.912,0,0,0-1.842-.64,4.462,4.462,0,0,1-2.958-1.3,12.372,12.372,0,0,0-3.22-1.475,10,10,0,0,1-.569-4.842,15.114,15.114,0,0,0-3.3-10.573,6.32,6.32,0,0,0-2.627,3.648c-.845,2.237-.959,2.251-2.745,1.673-.519-.167-1.037-.346-1.548-.556-3.487-1.439-3.486-1.442-6.672-.7-.59-.644-1.26-1.355-1.912-2.1a3,3,0,0,0-3.594-1.082c-2.44.993-5.015,1.355-7.268,3.233a19.3,19.3,0,0,1-3.331,1.856c-.74-.623-1.474-1.2-2.174-1.844-1.062-.984-2.085-2.047-3.15-3.021a29.078,29.078,0,0,1-8.023-11.672,24.984,24.984,0,0,0-3.286-6.134,7.328,7.328,0,0,0-1.128,1.553c-1.5,3.87-4.05,4.448-6.836,4.064-4.455-.61-8.9-1.374-13.348-2.046a13.008,13.008,0,0,0-2.235-.186,5.071,5.071,0,0,1-4.677-2.291,6.391,6.391,0,0,0-1.582-1.479c-5.023-3.6-10.074-7.14-15.583-9.163a8.639,8.639,0,0,1-3.745-3.12,34.754,34.754,0,0,1-6.088-12.221,5.3,5.3,0,0,0-3.138-3.972,11.935,11.935,0,0,1-5.5-4.335,3.109,3.109,0,0,0-3.224-1.373c-3.3.353-6.6.734-9.9.9-2.072-.044-4,1.455-5.037,3.919a30.711,30.711,0,0,1-1.882,3.538,2.118,2.118,0,0,1-2.888,1.031c-2.348-.952-4.75-1.655-7.094-2.626a15.593,15.593,0,0,1-3.827-2.2,13.06,13.06,0,0,0-7.518-3.131,6.9,6.9,0,0,1-1.8-.622c-2.752,3.517-6.343,5.073-8.97,8.624-2.5,3.39-6.15,4.737-8.236,8.549-.411.047-.666.19-.818.075a54.078,54.078,0,0,0-7.34-4.309,21.977,21.977,0,0,1-3.56-2.884c-.717-.622-1.368-1.39-2.087-2.008a2.08,2.08,0,0,0-2.45-.258c-2.017.935-4.062,1.741-6.1,2.573a1.838,1.838,0,0,1-2.388-.544c-2.091-2.588-4.393-1.943-6.591-.489s-4.258,3.308-6.38,4.98c-1.11.875-2.213,1.767-3.338,2.609a16.371,16.371,0,0,0-5.177,6.4,22.7,22.7,0,0,1-7.666,9.078c-1.957-.88-3.869-1.773-5.8-2.6-1.522-.655-3.082-1.154-4.588-1.87a31.615,31.615,0,0,1-2.889-1.826,7.211,7.211,0,0,0-2.04-1.158c-3.021-.63-5.652-2.579-8.294-4.476-2.553-1.832-5.057-3.792-7.582-5.694a3.739,3.739,0,0,0-4.613-.193,4.44,4.44,0,0,0-2.484,3.647,5.555,5.555,0,0,1-1.563,3.191c-1.077,1.189-1.974,2.675-3.03,3.911-1.375,1.6-2.263,1.494-3.631-.2a5.621,5.621,0,0,1-.686-.924c-.589-1.309-1.755-1.891-2.818-1.4-2.2.969-4.185.09-6.221-.816-4.766-2.125-9.544-4.2-14.317-6.29-.3-.128-.6-.311-.912-.413-4.06-1.319-4.155-1.853-6.223,3.061a11.741,11.741,0,0,1-3.883,5.118c-2.454,1.672-5.143,2.691-7.606,4.433a1.718,1.718,0,0,1-1.557-.114c-2.533-1.135-5.06-2.3-7.56-3.57a63.762,63.762,0,0,1-9.665-5.792,27.133,27.133,0,0,0-2.628-1.618,1.6,1.6,0,0,0-2.375.51c-1.985,3.039-4.2,2.2-6.433.823a9.508,9.508,0,0,0-3.287-1.62,3.177,3.177,0,0,0-3.283,1.136c-.563.673-1.169,1.28-1.769,1.891-1.1,1.119-2.22,2.229-3.446,3.454-1.253-.607-2.45-1.174-3.639-1.767-.5-.25-.984-.562-1.479-.836-4.538-2.5-4.495-2.421-8.377,1.451-1.976,1.971-4.133,3.6-6.233,5.337a1.784,1.784,0,0,1-2.151.275,4.241,4.241,0,0,0-5.139.872,6.8,6.8,0,0,1-6.463,1.535,14.241,14.241,0,0,0-2.54-.424,3.171,3.171,0,0,0-3,1.141,26.881,26.881,0,0,1-2.059,2.09,5.394,5.394,0,0,1-3.878,1.762,16.176,16.176,0,0,0-2.874.275,6.752,6.752,0,0,0-3.888,1.859c-.524.493-1.113.866-1.662,1.317-3.855,3.4-8.711,3.834-12.856,1.159a2.863,2.863,0,0,0-.816-.167,14.53,14.53,0,0,0-3.38,3.592,3.81,3.81,0,0,1-2.783,1.891,6.2,6.2,0,0,0-.938.275,11.884,11.884,0,0,0-7.482,4.394,9.478,9.478,0,0,1-7.642,3.89,4.6,4.6,0,0,0-3.126.7c-2.793,2.366-5.771,1.391-8.7,1.338-3.939-.073-7.888-.7-11.8.622a5.2,5.2,0,0,1-2.212-.04c-2.121-.244-4.24-.775-6.131,1.312a3.79,3.79,0,0,1-1.831.706,11.218,11.218,0,0,0-6.6,5.792c-.19.354-.38.71-.58,1.052-.619,1.285-1.824,1.766-2.848,1.137a22.194,22.194,0,0,1-3.988-2.759,31.826,31.826,0,0,1-4.2-4.715c-1.817-2.52-3.69-3.3-6.017-1.455-3.183,2.529-6.656,1.785-10.017,1.267-2.151-.51-4.009-2.358-5.031-5.007-.848-1.845-1.752-3.641-2.532-5.255-3.642-.412-3.76-.528-5.324-4.751-.336-.915-.646-1.855-1.037-2.727-.979-2.181-2.139-3.9-4.215-4.189a7.593,7.593,0,0,1-4.244-2.917c-.9-1.03-1.776-2.1-2.676-3.147a4.547,4.547,0,0,0-5.03-1.829,31.692,31.692,0,0,1-11.794,1.085,59.2,59.2,0,0,1-7.307-1.192,3.852,3.852,0,0,0-3.907,1.282c-1.1,1.157-2.143,2.417-3.2,3.653a7.92,7.92,0,0,1-4.516,3.112,5.308,5.308,0,0,0-3.795,3.594c-.628,1.347-1.1,2.839-1.653,4.257-.837,2.131-1.719,4.069-3.919,3.533-.453-.111-1.165.664-1.536,1.281a37.04,37.04,0,0,0-1.98,3.991c-1.442,3.55-4.209,5.693-7.167,5.552a14.266,14.266,0,0,0-2.561.02,7.165,7.165,0,0,1-4.967-1.311c-.488-.293-.945-.686-1.445-.946a2.986,2.986,0,0,0-4.139,1.1c-.536.716-1.053,1.462-1.606,2.149a24.252,24.252,0,0,1-6.97,6.157c-1.577.879-2.238.6-3.376-1.14-.428-.654-.825-1.344-1.242-2.013a9.953,9.953,0,0,0-5.4-4.465,5.08,5.08,0,0,1-2.436-.961c-1.7-1.894-3.608-1.7-5.5-1.313a9.407,9.407,0,0,1-4.439-.189c-3.385-.912-6.81-.525-10.224-.353a16.067,16.067,0,0,0-2.553.3,5.709,5.709,0,0,1-5.216-1.227,5.625,5.625,0,0,0-3.7-1.062,11.387,11.387,0,0,1-8.726-4.777,7.573,7.573,0,0,0-5.154-3.1c-.524-.033-1.037-.437-1.561-.466a5.659,5.659,0,0,1-4.179-2.81,36.533,36.533,0,0,0-2.7-3.029,4.784,4.784,0,0,0-1.322.456c-2.722,1.969-5.591,1.556-8.467,1.041a10.988,10.988,0,0,1-4.9-3.129,9.284,9.284,0,0,0-6.652-2.656,7,7,0,0,1-5.855-2.934,4.427,4.427,0,0,0-5.313-1.835c-.3.112-.647.015-.957.112a7.718,7.718,0,0,1-7.346-1.96,3.23,3.23,0,0,0-3.945-.587,2.953,2.953,0,0,1-3.606-.824,46.035,46.035,0,0,1-6.939-6.259,2.92,2.92,0,0,0-4.116-1.039c-2.069,1.17-4.206,2.115-6.315,3.148-.4.2-.8.347-1.224.527a11.939,11.939,0,0,1-3.749-3.357c-.292-.412-.721-.659-1.012-1.071-1.866-2.672-3.966-2.365-6.166-1-.584.361-1.144.8-1.739,1.115-1.986,1.066-3.9,1.552-5.575-1.016a1.926,1.926,0,0,0-2.958-.513c-.974.6-1.968,1.155-2.906,1.849a56.639,56.639,0,0,1-13.661,7.393c-2.465,2.3-5.752,2.033-8-.656a1.728,1.728,0,0,0-.894-.47c-3.624-.7-5.741-4.132-7.665-7.916-.183-.359-.326-.757-.483-1.14-.482-1.4-1.66-2.064-2.719-1.538-2.367.887-4.739,1.759-7.079,2.768-3.965,1.714-7.908,3.531-11.865,5.284a4.865,4.865,0,0,1-4.36.375c-1.35-.785-2.915-.067-3.649,1.676a4.335,4.335,0,0,1-.685.923,1.7,1.7,0,0,1-2.9.274c-1.555-1.774-3.012-3.717-4.466-5.652a3.371,3.371,0,0,1-.5-1.582,4.685,4.685,0,0,0-2.618-4.023,3.713,3.713,0,0,0-4.33.063c-1.139.8-2.249,1.685-3.378,2.517-2.349,1.73-4.663,3.55-7.063,5.145a15.728,15.728,0,0,1-6.042,2.769,10.65,10.65,0,0,0-2.965,1.538v123.583h0V4494.3H3089.369Zm-225.933-151.645v.007a2.241,2.241,0,0,0-.185-.154A2.011,2.011,0,0,1,2863.436,2652.834Zm-1603.382-.047a2.742,2.742,0,0,1,.184-.6,2.747,2.747,0,0,0-.184.6Z" transform="translate(-1169.351 -2622.028)"/>
</svg>
