<svg xmlns="http://www.w3.org/2000/svg" width="1920.018" height="1272.188" viewBox="0 0 1920.018 1272.188">
  <path id="Trazado_6274" data-name="Trazado 6274" d="M3089.369,2746h-.015V2643.086a19.255,19.255,0,0,0-4.386-.7,39.585,39.585,0,0,1-6.026-.735,5.308,5.308,0,0,0-4.475,1.034c-1,.752-1.962,1.539-2.94,2.31a8.717,8.717,0,0,1-4.528,2.093,4.866,4.866,0,0,0-3.589,2.227c-.481.653-.846,1.379-1.259,2.075s-.776,1.421-1.237,2.088a2.512,2.512,0,0,1-2.632,1.331,2.218,2.218,0,0,0-2.379,1.14c-.595.826-1.2,1.648-1.761,2.494a8.023,8.023,0,0,1-7.193,3.727,16.191,16.191,0,0,0-2.241,0,9.941,9.941,0,0,1-5.565-1.032,12.063,12.063,0,0,0-1.163-.506,3.816,3.816,0,0,0-3.888.611c-.555.467-1.07.972-1.612,1.453a24.223,24.223,0,0,1-6.622,4.146c-2.089.891-2.656.74-4.149-.846-.212-.224-.412-.459-.612-.69a10.659,10.659,0,0,0-6.159-3.522,5.169,5.169,0,0,1-2.126-.58c-1.687-1.35-3.623-1.107-5.5-.862a14.36,14.36,0,0,1-4.437-.153,48.215,48.215,0,0,0-10.226-.221,22.881,22.881,0,0,0-2.553.2,7.581,7.581,0,0,1-5.2-.872,6.861,6.861,0,0,0-3.392-.674,14.2,14.2,0,0,1-9.286-3.479,7.539,7.539,0,0,0-4.278-1.817c-.949-.065-1.872-.467-2.82-.521a4.835,4.835,0,0,1-3.06-1.415c-.991-.88-2.092-1.655-3.108-2.447a6.925,6.925,0,0,0-1.4.36c-1.964,1.046-4.1.933-6.244.933a13.485,13.485,0,0,1-7.125-2.4,11.789,11.789,0,0,0-6.656-1.785,8.47,8.47,0,0,1-5.841-2.027,5.378,5.378,0,0,0-5.008-1.247c-.1.025-.216.029-.316.047a12.219,12.219,0,0,1-8.581-1.435,3.685,3.685,0,0,0-3.356-.29,4.407,4.407,0,0,1-3.919-.519,49.23,49.23,0,0,1-7.182-4.454,3.427,3.427,0,0,0-3.563-.56c-2.492.882-5.02,1.679-7.668,2.554a9.456,9.456,0,0,1-3.438-1.9c-.465-.409-1.048-.7-1.49-1.127-1.885-1.807-3.977-1.547-6.177-.632-.971.4-1.966.753-2.966,1.1a3.338,3.338,0,0,1-3.572-.536c-.158-.137-.35-.239-.5-.379a2.975,2.975,0,0,0-3.537-.356c-1.35.6-2.755,1.11-4.042,1.81-2.975,1.62-6.289,2.456-9.449,3.639-1.678.629-3.452,1.026-5.152,1.61a3.571,3.571,0,0,1-3.068-.124,19.8,19.8,0,0,0-5.306-2.016c-1.918-.434-3.139-1.991-4.45-3.282a10.863,10.863,0,0,1-1.633-2.2,2.553,2.553,0,0,0-3.238-1.173c-2.25.62-4.525,1.174-6.763,1.827-3.863,1.133-7.714,2.315-11.563,3.492a7.405,7.405,0,0,1-4.665.321,2.871,2.871,0,0,0-3.408.976,4.856,4.856,0,0,1-.912.84,2.159,2.159,0,0,1-2.9.115c-1.555-1.213-3.006-2.532-4.455-3.853a1.838,1.838,0,0,1-.482-1.084,3.265,3.265,0,0,0-2.362-2.579,5.351,5.351,0,0,0-4.034-.275,14.674,14.674,0,0,0-1.725.786q-3.1,1.562-6.179,3.149a28.128,28.128,0,0,1-8.854,3.314,2.06,2.06,0,0,0-.912.263c-2.163,1.647-4.916,1.8-7.416,2.607l-6.752,2.17a17.783,17.783,0,0,1-7.5-5.776,14.76,14.76,0,0,0-5.89-4.9c-1.145-.527-2.2-1.222-3.309-1.82-2.026-1.093-4.018-2.253-6.107-3.231-2.632-1.23-4.288-.964-7.588,1-2.116-.542-4.41-.994-6.591-1.733-1.578-.536-2.992-.56-4.17.484-2.41,2.139-5.44,3.072-8.44,4.113-1.383.477-2.671,1.169-4.083,1.8-2.01-2.1-4.739-3.172-6.909-4.883-3.283-2.58-7.025-4.491-10.783-6.991q-2.423.576-4.9.915a10.364,10.364,0,0,0-3.834,1.391,18.314,18.314,0,0,1-5.667,1.959,48.183,48.183,0,0,0-5.236,1.347c-2.019.56-2.531.449-3.87-1.085a19.222,19.222,0,0,1-1.457-1.959,5.613,5.613,0,0,0-4.772-2.541c-3.412-.141-6.817-.4-10.223-.631a3.577,3.577,0,0,0-2.946.821,13.082,13.082,0,0,1-5.765,3.109,4.006,4.006,0,0,0-2.93,2.5c-.035.093-.1.179-.13.272-1.277,3.5-3.842,6.152-6.543,8.729a5.81,5.81,0,0,1-2.714,1.455,63.422,63.422,0,0,0-18.283,7.763,5.926,5.926,0,0,1-3.25,1.092c-5.575-.023-11.035,1-16.535,1.625a10.29,10.29,0,0,1-4.664-.771c-.631-.22-1.1-.9-1.585-1.405s-.892-1.068-1.461-1.759a14.931,14.931,0,0,0-3.318,4.071,21.723,21.723,0,0,1-7.965,7.977c-1.755,1.119-3.5,2.253-5.332,3.433a21.749,21.749,0,0,1-3.287-1.2c-2.161-1.206-4.6-1.513-6.94-2.161a4.467,4.467,0,0,0-4.442.881c-.465.4-.988.746-1.626,1.223-2.4-.913-4.728-.263-7.048.543a11.936,11.936,0,0,1-1.863.438,1.526,1.526,0,0,1-1.828-.876,5.015,5.015,0,0,0-2.751-2.922c-1.983,1.742-3.427,3.69-3.382,6.4.021,1.283-.138,2.56-.224,3.989-2.638.358-4.639,1.876-7.27,2.146-2.276.233-4.429,1.391-6.676,2.012-3.381.933-6.781,1.755-10.181,2.623-.411.105-.835.174-1.235.308-3.212,1.081-6.428,2.155-9.623,3.275-.978.343-1.889.84-2.889,1.295a25.063,25.063,0,0,0,.043,3.981,6.742,6.742,0,0,0,2.3,3.845,9.048,9.048,0,0,1,2.65,3.56c-.447.291-.944.607-1.422.944-.5.357-1.191.642-1.441,1.12a6.1,6.1,0,0,1-3.357,2.613,5.7,5.7,0,0,0-3.1,2.87,10.494,10.494,0,0,1-1.676,2.164c-1,1.166-2.083,2.263-3,3.476a3.225,3.225,0,0,1-2.638,1.427c-1.28.044-2.558.166-3.838.217a14.344,14.344,0,0,1-5.336-.79c-3.7-1.277-7.4-2.571-11.182-3.618a45.974,45.974,0,0,0-6.919-1.12,9.383,9.383,0,0,1-3.368-.827,8.843,8.843,0,0,0-2.069-.782,20.567,20.567,0,0,1-7.207-3.752,6.716,6.716,0,0,1-2.944-4.813,39.155,39.155,0,0,0-2.031-8.727,2.913,2.913,0,0,1,.065-.826c.773-.42,1.693-.872,2.56-1.4a2.033,2.033,0,0,0,.439-.245,1.733,1.733,0,0,0,.317-2.549,6.052,6.052,0,0,0-.889-1.238q-1.944-1.987-3.944-3.919a5.44,5.44,0,0,0-1.263-.9,1.852,1.852,0,0,0-2.445.546,1.588,1.588,0,0,0-.175.352,17.184,17.184,0,0,0-.54,2,15.035,15.035,0,0,0-2.861.038,19.621,19.621,0,0,0-2.649,1.044,92.33,92.33,0,0,0-9.592,4.066,4.856,4.856,0,0,1-1.8.574c-2.656.15-4.853,1.4-7.11,2.5-1.688.817-3.337,1.7-5.149,2.627-1.615-1.083-3.4-2.156-5.025-3.41a7.162,7.162,0,0,0-4.379-1.57,5.036,5.036,0,0,1-4.739-2.519c-1.269-2.3-3.364-3.762-5.385-5.367-2.347-1.866-4.566-3.874-7.026-5.978-2.278.529-3.747-.738-4.84-2.644a10.746,10.746,0,0,0-.892-1.22c-.054-.073-.179-.094-.136-.073-1.944.485-3.786.908-5.6,1.418a8.171,8.171,0,0,1-4.7.18c-2.727.594-4.887-.681-7.206-1.713a66.9,66.9,0,0,0-8.929-3.286,12.342,12.342,0,0,1-6.718-4.292,7.113,7.113,0,0,0-2.967-2.207,4.409,4.409,0,0,0-2.479-.333c-1.471.228-2.965.332-4.453.434a5.177,5.177,0,0,1-3.558-1.071,13.629,13.629,0,0,1-3.812-3.963,33.551,33.551,0,0,0-3.253-4.4,5.793,5.793,0,0,0-2.044-1.369c-1.249-.56-2.564-1-3.864-1.443-2.2-.747-4.4-1.476-6.624-2.159-1.312-.4-2.664-.7-4-1.054-1.022-.268-2.041-.546-3.066-.808-.925-.237-1.856-.449-2.78-.687a7.749,7.749,0,0,0-6.383,1.132l-1.288.825a2.853,2.853,0,0,1-.6-.271c-2.824-2.305-6-2.252-9.337-1.243-1.617.489-3.292.821-4.9,1.335q-6.8,2.168-13.551,4.468a4.128,4.128,0,0,0-1.777,1.213,46.553,46.553,0,0,0-3.248,4.411,13.776,13.776,0,0,1-3.31,3.589,6.487,6.487,0,0,1-5.01,1.46,21.053,21.053,0,0,1-2.862-.27,5.183,5.183,0,0,0-5.441,1.706c-4.191,4.515-3.84,3.6-8.9,5.412-3.575,1.28-7.316,2.269-10.475,4.43a1.439,1.439,0,0,1-.888.29c-1.927-.3-3.854.232-5.717.093a37.909,37.909,0,0,1-6.469-1.54,10.627,10.627,0,0,1-1.287-.536c-.69.942-1.361,1.812-1.979,2.715a2.732,2.732,0,0,1-2.889,1.443,2.536,2.536,0,0,0-2.474,1.034,47.651,47.651,0,0,1-8.074,6.766,8.808,8.808,0,0,0-1.666,1.751c-.7.878-1.285,1.836-1.993,2.706a3.772,3.772,0,0,1-2.991,1.545c-3.532-.114-5.909,1.951-8.475,3.683-.68.459-1.312.981-1.812,1.359-3.119-1.473-6.039-2.88-8.99-4.229a7.615,7.615,0,0,0-2.407-.7,9.912,9.912,0,0,1-3.919-1.213c-3.415-1.883-7.253-2.879-10.769-4.539-1.006-.476-1.856-.05-3,.093-.231-.6-.492-1.213-.709-1.84-.536-1.542-1.782-1.952-3.182-1.026a4.784,4.784,0,0,0-.726.583q-1.989,1.945-3.953,3.913a4.872,4.872,0,0,0-.565.723c-1.194,1.744-.992,2.651.868,3.672.72.395,1.839.448,1.993,1.321a5.089,5.089,0,0,1-.39,2.3,30.019,30.019,0,0,0-1.417,6.416,8.36,8.36,0,0,1-3.964,6.144c-2.877,2.065-6.335,2.791-9.422,4.32a5.757,5.757,0,0,1-2.2.287,31.588,31.588,0,0,0-9.046,1.785c-3.3,1.147-6.61,2.27-9.977,3.213a21.912,21.912,0,0,1-4.733.52c-.842.042-1.7-.26-2.542-.252a4.511,4.511,0,0,1-4.42-2.365,13.7,13.7,0,0,0-1.848-2.043,12.641,12.641,0,0,1-2.111-2.6,6.131,6.131,0,0,0-3.392-3,6.512,6.512,0,0,1-2.892-2.23,14.85,14.85,0,0,0-2.8-2.363,5.341,5.341,0,0,1,1.883-3.016,13.817,13.817,0,0,0,1.812-2.064,4.1,4.1,0,0,0,.98-3.348,7.3,7.3,0,0,1,.2-2.328c-.568-1.159-1.758-1.478-2.835-1.822-5.243-1.68-10.42-3.529-15.806-4.82-3.711-.89-7.334-2.112-11-3.178a6.582,6.582,0,0,0-1.842-.435,5.645,5.645,0,0,1-2.958-.884,15.692,15.692,0,0,0-3.22-1,4.808,4.808,0,0,1-.569-3.29c.313-2.947-1.093-5.137-3.3-7.185a4.856,4.856,0,0,0-2.627,2.479c-.845,1.52-.959,1.529-2.745,1.136-.519-.114-1.037-.235-1.548-.378-3.487-.978-3.486-.98-6.672-.477-.59-.437-1.26-.921-1.912-1.424a3.908,3.908,0,0,0-3.594-.735c-2.44.675-5.015.921-7.268,2.2a23.122,23.122,0,0,1-3.331,1.261c-.74-.423-1.474-.813-2.174-1.253-1.062-.669-2.085-1.391-3.15-2.053a21.7,21.7,0,0,1-8.023-7.931,16.35,16.35,0,0,0-3.286-4.168,5.627,5.627,0,0,0-1.128,1.055c-1.5,2.629-4.05,3.022-6.836,2.762-4.455-.414-8.9-.933-13.348-1.39a18.991,18.991,0,0,0-2.235-.126,6.153,6.153,0,0,1-4.677-1.556,6.089,6.089,0,0,0-1.582-1c-5.023-2.446-10.074-4.852-15.583-6.226a8.719,8.719,0,0,1-3.745-2.12,22.047,22.047,0,0,1-6.088-8.3,4.3,4.3,0,0,0-3.138-2.7,12.368,12.368,0,0,1-5.5-2.946,3.873,3.873,0,0,0-3.224-.933c-3.3.24-6.6.5-9.9.613a5.809,5.809,0,0,0-5.037,2.663,19.985,19.985,0,0,1-1.882,2.4,2.635,2.635,0,0,1-2.888.7c-2.348-.647-4.75-1.125-7.094-1.784a18.467,18.467,0,0,1-3.827-1.493,16.794,16.794,0,0,0-7.518-2.127,9.285,9.285,0,0,1-1.8-.423c-2.752,2.39-6.343,3.447-8.97,5.86-2.5,2.3-6.15,3.219-8.236,5.809-.411.032-.666.129-.818.051a63.625,63.625,0,0,0-7.34-2.928,22.564,22.564,0,0,1-3.56-1.959c-.717-.423-1.368-.944-2.087-1.364a2.877,2.877,0,0,0-2.45-.175c-2.017.635-4.062,1.183-6.1,1.749a2.431,2.431,0,0,1-2.388-.37c-2.091-1.759-4.393-1.32-6.591-.332s-4.258,2.248-6.38,3.384c-1.11.594-2.213,1.2-3.338,1.773a13.378,13.378,0,0,0-5.177,4.346,19,19,0,0,1-7.666,6.168c-1.957-.6-3.869-1.2-5.8-1.764-1.522-.445-3.082-.784-4.588-1.271-1-.324-1.923-.833-2.889-1.241a8.577,8.577,0,0,0-2.04-.787,27.876,27.876,0,0,1-8.294-3.042c-2.553-1.245-5.057-2.576-7.582-3.869a5.18,5.18,0,0,0-4.613-.131c-1.192.51-2.261,1.062-2.484,2.478a3.528,3.528,0,0,1-1.563,2.168c-1.077.808-1.974,1.818-3.03,2.657-1.375,1.087-2.263,1.015-3.631-.135a4.37,4.37,0,0,1-.686-.628,2.5,2.5,0,0,0-2.818-.954c-2.2.659-4.185.062-6.221-.554-4.766-1.444-9.544-2.851-14.317-4.274-.3-.087-.6-.211-.912-.28-4.06-.9-4.155-1.259-6.223,2.08a9.257,9.257,0,0,1-3.883,3.478c-2.454,1.136-5.143,1.829-7.606,3.012a2.444,2.444,0,0,1-1.557-.078c-2.533-.771-5.06-1.564-7.56-2.426a74.509,74.509,0,0,1-9.665-3.936c-.84-.428-1.746-.747-2.628-1.1a2.072,2.072,0,0,0-2.375.346c-1.985,2.065-4.2,1.493-6.433.56a11.806,11.806,0,0,0-3.287-1.1,4.117,4.117,0,0,0-3.283.772c-.563.457-1.169.87-1.769,1.285-1.1.76-2.22,1.514-3.446,2.347-1.253-.412-2.45-.8-3.639-1.2-.5-.17-.984-.382-1.479-.568-4.538-1.7-4.495-1.645-8.377.986-1.976,1.339-4.133,2.447-6.233,3.627a2.45,2.45,0,0,1-2.151.187,5.766,5.766,0,0,0-5.139.593,9.278,9.278,0,0,1-6.463,1.043,20.518,20.518,0,0,0-2.54-.288,4.071,4.071,0,0,0-3,.775,24.507,24.507,0,0,1-2.059,1.42,6.755,6.755,0,0,1-3.878,1.2,23.61,23.61,0,0,0-2.874.187,8.4,8.4,0,0,0-3.888,1.263c-.524.335-1.113.589-1.662.9a14.148,14.148,0,0,1-12.856.787,4.077,4.077,0,0,0-.816-.114,12.919,12.919,0,0,0-3.38,2.441,4.181,4.181,0,0,1-2.783,1.285,8.566,8.566,0,0,0-.938.187,13.837,13.837,0,0,0-7.482,2.986,11.459,11.459,0,0,1-7.642,2.643,6.4,6.4,0,0,0-3.126.476c-2.793,1.608-5.771.945-8.7.909-3.939-.05-7.888-.478-11.8.423a7.607,7.607,0,0,1-2.212-.027c-2.121-.166-4.24-.526-6.131.891a4.968,4.968,0,0,1-1.831.479,11,11,0,0,0-6.6,3.936c-.19.241-.38.482-.58.715a2.387,2.387,0,0,1-2.848.772,24.492,24.492,0,0,1-3.988-1.875,27.432,27.432,0,0,1-4.2-3.2c-1.817-1.712-3.69-2.244-6.017-.989-3.183,1.719-6.656,1.213-10.017.861a7.038,7.038,0,0,1-5.031-3.4c-.848-1.254-1.752-2.474-2.532-3.571-3.642-.28-3.76-.359-5.324-3.228-.336-.622-.646-1.261-1.037-1.853a5.446,5.446,0,0,0-4.215-2.847,8.343,8.343,0,0,1-4.244-1.982c-.9-.7-1.776-1.429-2.676-2.139a5.807,5.807,0,0,0-5.03-1.243,46.1,46.1,0,0,1-11.794.737c-2.444-.163-4.89-.437-7.307-.81a5.041,5.041,0,0,0-3.907.871c-1.1.787-2.143,1.642-3.2,2.482a8.689,8.689,0,0,1-4.516,2.114,5,5,0,0,0-3.795,2.442c-.628.915-1.1,1.929-1.653,2.892-.837,1.448-1.719,2.765-3.919,2.4-.453-.076-1.165.451-1.536.871a23.35,23.35,0,0,0-1.98,2.712,8.021,8.021,0,0,1-7.167,3.772,20.943,20.943,0,0,0-2.561.013,9.832,9.832,0,0,1-4.967-.891c-.488-.2-.945-.466-1.445-.643a3.853,3.853,0,0,0-4.139.746c-.536.486-1.053.994-1.606,1.46a23.812,23.812,0,0,1-6.97,4.184c-1.577.6-2.238.408-3.376-.774-.428-.444-.825-.914-1.242-1.368a10.063,10.063,0,0,0-5.4-3.033,6.632,6.632,0,0,1-2.436-.653c-1.7-1.287-3.608-1.155-5.5-.892a13.716,13.716,0,0,1-4.439-.129,47.47,47.47,0,0,0-10.224-.24,23.357,23.357,0,0,0-2.553.2,7.814,7.814,0,0,1-5.216-.833,7.662,7.662,0,0,0-3.7-.722,13.491,13.491,0,0,1-8.726-3.246,8.728,8.728,0,0,0-5.154-2.105c-.524-.022-1.037-.3-1.561-.317a6.233,6.233,0,0,1-4.179-1.909,31.5,31.5,0,0,0-2.7-2.058,6.449,6.449,0,0,0-1.322.31c-2.722,1.338-5.591,1.057-8.467.707a12.474,12.474,0,0,1-4.9-2.126,11.97,11.97,0,0,0-6.652-1.8,8.48,8.48,0,0,1-5.855-1.994,5.65,5.65,0,0,0-5.313-1.247c-.3.076-.647.01-.957.076a10.412,10.412,0,0,1-7.346-1.332,4.409,4.409,0,0,0-3.945-.4,3.942,3.942,0,0,1-3.606-.56,44.743,44.743,0,0,1-6.939-4.253,3.774,3.774,0,0,0-4.116-.706c-2.069.795-4.206,1.438-6.315,2.139-.4.133-.8.236-1.224.358a11.635,11.635,0,0,1-3.749-2.281c-.292-.28-.721-.448-1.012-.728-1.866-1.816-3.966-1.607-6.166-.683-.584.245-1.144.541-1.739.757-1.986.724-3.9,1.055-5.575-.69a2.5,2.5,0,0,0-2.958-.349c-.974.409-1.968.785-2.906,1.257a68.485,68.485,0,0,1-13.661,5.023,6.931,6.931,0,0,1-8-.446,2.1,2.1,0,0,0-.894-.319c-3.624-.476-5.741-2.808-7.665-5.379a8.977,8.977,0,0,1-.483-.774,2.248,2.248,0,0,0-2.719-1.045c-2.367.6-4.739,1.2-7.079,1.881-3.965,1.165-7.908,2.4-11.865,3.59a6.916,6.916,0,0,1-4.36.255,3.013,3.013,0,0,0-3.649,1.138,3.368,3.368,0,0,1-.685.627,2.164,2.164,0,0,1-2.9.187c-1.555-1.206-3.012-2.526-4.466-3.84a1.832,1.832,0,0,1-.5-1.075c-.187-1.5-1.273-2.2-2.618-2.733a5.187,5.187,0,0,0-4.33.043c-1.139.546-2.249,1.145-3.378,1.71-2.349,1.176-4.663,2.412-7.063,3.5a19.9,19.9,0,0,1-6.042,1.881,13.041,13.041,0,0,0-2.965,1.045v83.974h0V3894.217H3089.369ZM2863.436,2642.96v0c-.06-.037-.122-.073-.185-.1C2863.314,2642.891,2863.376,2642.924,2863.436,2642.96Zm-1603.382-.032a1.468,1.468,0,0,1,.184-.405,1.471,1.471,0,0,0-.184.406Z" transform="translate(-1169.351 -2622.028)"/>
</svg>
