<svg xmlns="http://www.w3.org/2000/svg" width="213.365" height="128.428" viewBox="0 0 213.365 128.428">
  <g id="logo" transform="translate(-838.637 -31.087)">
    <g id="Grupo_1" data-name="Grupo 1" transform="translate(838.637 31.087)">
      <path id="Trazado_1" data-name="Trazado 1" d="M-520.574,271.871a42.926,42.926,0,0,1-7.1,6.9,2.668,2.668,0,0,1-.91-.6A51.394,51.394,0,0,1-538.7,267.618a60.406,60.406,0,0,1-3.611-5.672c-.149-.265-.312-.523-.5-.844-.332.241-.618.425-.878.64q-2.911,2.42-5.814,4.85l-.071.061c-.657.575-.687.643-.392,1.438a34.372,34.372,0,0,0,4.721,8.77,31.614,31.614,0,0,0,5.958,6.034c.69.534,1.371,1.079,2.05,1.627a8.1,8.1,0,0,1,1.2,1.226.828.828,0,0,1-.017.157.184.184,0,0,1-.055.075q-3.684,2.949-7.371,5.9a1.986,1.986,0,0,1-.3.155c-.412-.29-.853-.578-1.27-.9a42.805,42.805,0,0,1-13.94-18.5c-.947-2.375-1.628-4.836-2.417-7.263-.857-2.634-1.7-5.272-2.634-7.88a30.366,30.366,0,0,0-3.561-6.969,23.7,23.7,0,0,0-4.007-4.544q-1.447-1.256-2.894-2.513c-.235-.2-.472-.407-.7-.622-.525-.5-.545-.681-.049-1.247q2.617-2.988,5.254-5.959c.082-.093.171-.181.262-.266a.473.473,0,0,1,.6-.094c.325.184.65.37.961.576a31.02,31.02,0,0,1,5.808,5.113,34.3,34.3,0,0,1,5.82,8.761c.9,1.95,1.726,3.934,2.587,5.9.148.34.307.675.459,1.009a1.778,1.778,0,0,0,.908-.539q2.449-2.1,4.881-4.215a3.186,3.186,0,0,0,.394-.4.909.909,0,0,0,.2-.787c-.039-.183-.081-.365-.135-.544-1.1-3.7-2.194-7.4-3.316-11.092a32.4,32.4,0,0,0-3.774-8.2,12.856,12.856,0,0,0-3.815-3.922,3.86,3.86,0,0,1-1.556-1.639,5.186,5.186,0,0,1,.448-.555q2.983-2.831,5.978-5.65a3.256,3.256,0,0,1,.286-.24.56.56,0,0,1,.617-.054,6.459,6.459,0,0,1,.641.383,17.874,17.874,0,0,1,4.091,3.8,36.632,36.632,0,0,1,5.14,8.859,78.215,78.215,0,0,1,2.593,7.694c.831,2.772,1.58,5.571,2.461,8.327a48.963,48.963,0,0,0,7.99,15.327,45.431,45.431,0,0,0,7.323,7.316A18.777,18.777,0,0,1-520.574,271.871Z" transform="translate(575.621 -187.144)" fill="#fcf5dd"/>
      <path id="Trazado_2" data-name="Trazado 2" d="M325.261,290.931a11.583,11.583,0,0,1-6.48-1.827,11.707,11.707,0,0,1-5.5-10.05,14.193,14.193,0,0,1,1.912-7.322,23.019,23.019,0,0,1,6.066-7.146,13.368,13.368,0,0,1,2.874-1.731c.115-.048.231-.093.346-.141a1.876,1.876,0,0,1,2.293.468,13.827,13.827,0,0,1,2.888,4.435,10.192,10.192,0,0,1,.377,1.154,2.088,2.088,0,0,1-.755,2.332c-.827.661-1.636,1.345-2.443,2.032a13.113,13.113,0,0,0-2.944,3.715,4.229,4.229,0,0,0-.535,2.241,1.569,1.569,0,0,0,1.361,1.644,3.3,3.3,0,0,0,1.2.048,6.841,6.841,0,0,0,5.527-4.352,10.386,10.386,0,0,0,.7-3.555,21.992,21.992,0,0,0-1.547-8.677c-.886-2.294-1.8-4.579-2.671-6.877a25.371,25.371,0,0,1-1.426-5.117,19.224,19.224,0,0,1,1.089-10.094,17.75,17.75,0,0,1,2.517-4.565,12.867,12.867,0,0,1,8.823-4.906,11.011,11.011,0,0,1,7.96,2.017,15.525,15.525,0,0,1,5.121,5.843,14.1,14.1,0,0,1,1.353,7.9,16.442,16.442,0,0,1-3.928,9.024,12.348,12.348,0,0,1-2.638,2.361c-.207.138-.422.264-.637.39a1.124,1.124,0,0,1-1.387-.1c-.121-.1-.239-.2-.353-.305q-2.234-2.058-4.466-4.12a6.184,6.184,0,0,1-.579-.608.683.683,0,0,1-.051-.866,7.884,7.884,0,0,1,.58-.731,20.67,20.67,0,0,0,2.855-4.369,4.848,4.848,0,0,0,.091-4.244,4.155,4.155,0,0,0-1.015-1.44,2.356,2.356,0,0,0-3.366-.028,5.317,5.317,0,0,0-.885,1.078,8.612,8.612,0,0,0-1.236,5.457,13.947,13.947,0,0,0,.991,4.068c.864,2.169,1.732,4.336,2.576,6.513a32.77,32.77,0,0,1,2.055,7.935,25.041,25.041,0,0,1-.951,11.074,17.065,17.065,0,0,1-13.438,11.248C326.82,290.851,326.037,290.869,325.261,290.931Z" transform="translate(-140.093 -198.264)" fill="#fcf5dd"/>
      <path id="Trazado_3" data-name="Trazado 3" d="M-69.915,117.48a2.308,2.308,0,0,1-.031-1.3,45.408,45.408,0,0,1,6.464-17.582,37.85,37.85,0,0,1,4.65-5.96c2.448-2.53,4.937-5.021,7.406-7.532q3.376-3.433,6.742-6.875c.3-.309.558-.66.834-.991-.186-.383-.525-.39-.81-.457-.849-.2-1.7-.377-2.556-.554-2.927-.6-5.852-1.223-8.786-1.8-1.283-.252-2.578-.459-3.877-.6a14.251,14.251,0,0,0-5.54.6c-.715.207-1.422.443-2.169.677a4.051,4.051,0,0,1-.309-.472,39.6,39.6,0,0,1-2.785-8.5,1.856,1.856,0,0,1,0-.376,3.055,3.055,0,0,1,1.168-.564,25.809,25.809,0,0,1,11.237-1.3c1.575.179,3.142.476,4.695.8,2.681.565,5.345,1.206,8.02,1.8a51.573,51.573,0,0,0,12.349,1.144c.841-.019,1.682-.053,2.524-.071.211,0,.423.029.683.049a3.639,3.639,0,0,1,.093.65A22.518,22.518,0,0,1-33.8,80.658a50.248,50.248,0,0,1-5.8,6.832c-3,2.953-6,5.9-8.978,8.871-1.19,1.188-2.355,2.406-3.464,3.67a36.238,36.238,0,0,0-5.358,8.186,2.958,2.958,0,0,0-.415,1.141,2.123,2.123,0,0,0,1.206.445c.888.161,1.784.294,2.682.381,1.925.186,3.856.242,5.79.245A23.933,23.933,0,0,0-39.607,109a2.516,2.516,0,0,1,.3-.078c.084.03.119.033.138.052a.157.157,0,0,1,.037.084,3.635,3.635,0,0,1,.047.368c.15,3.2.3,6.406.447,9.642a3.663,3.663,0,0,1-.587.311,11.968,11.968,0,0,1-1.353.355,45.934,45.934,0,0,1-11.076.637,82.965,82.965,0,0,1-11.46-1.634c-1.924-.383-3.86-.706-5.79-1.058C-69.235,117.616-69.568,117.548-69.915,117.48Z" transform="translate(169.07 -62.353)" fill="#fcf5dd"/>
      <path id="Trazado_4" data-name="Trazado 4" d="M-405.957,122.738c-.268.275-.479.5-.7.717a88.116,88.116,0,0,1-12.3,10.175c-1.288.876-2.568,1.763-3.849,2.649-.252.174-.489.368-.778.586a42.923,42.923,0,0,1,5.077,10.968c.321.141.477-.055.651-.163a33.325,33.325,0,0,0,4.178-3.144c.635-.55,1.262-1.109,1.942-1.708a3.431,3.431,0,0,1,.357.534c.289.689.554,1.388.831,2.081a61.8,61.8,0,0,0,2.743,6.033c.456.86.438.949-.36,1.526q-3.333,2.408-6.68,4.8c-.152.109-.31.209-.464.315a.692.692,0,0,0-.316.724,2.418,2.418,0,0,0,.05.275,31.673,31.673,0,0,0,2.2,5.946,3.178,3.178,0,0,0,.231.33,7.263,7.263,0,0,0,1.245-.647,33.783,33.783,0,0,0,5.244-3.895c.833-.75,1.63-1.541,2.441-2.315q2.129-2.033,4.256-4.068a3.547,3.547,0,0,1,1.312-.864,2.693,2.693,0,0,1,.6,1.267q1.151,3.7,2.276,7.408.409,1.339.805,2.683a5.719,5.719,0,0,1,.152.634.714.714,0,0,1-.364.791c-.16.1-.318.2-.483.283a87.181,87.181,0,0,0-14.507,9.691c-1.114.9-2.17,1.87-3.248,2.813-.374.327-.736.669-1.072.976-.357.021-.473-.236-.641-.4a38.279,38.279,0,0,1-9.974-17.484q-1.506-5.541-2.949-11.1a29.339,29.339,0,0,0-4.028-8.89,32.21,32.21,0,0,0-3.021-3.92,19.382,19.382,0,0,1-2.1-2.859c-.407-.653-.365-.829.262-1.318q4.755-3.706,9.511-7.41c1.449-1.131,2.885-2.279,4.337-3.406a36.812,36.812,0,0,0,6.637-6.807c.265-.346.538-.686.827-1.012a1.119,1.119,0,0,1,1.435-.29,12.758,12.758,0,0,1,1.327.684,23.821,23.821,0,0,1,5.963,5.333c.232.292.438.606.643.918C-406.156,122.328-406.082,122.5-405.957,122.738Z" transform="translate(464.382 -103.703)" fill="#fcf5dd"/>
      <path id="Trazado_5" data-name="Trazado 5" d="M112.643,83.131c.473,0,.844-.016,1.214,0a29.529,29.529,0,0,1,15.077,4.952c1.561,1.028,3.131,2.042,4.7,3.06a48.927,48.927,0,0,0,7.592,4c.571.242,1.134.5,1.652.73.115.277-.032.418-.123.568q-2.31,3.788-4.626,7.573c-.094.155-.214.293-.35.477-.577-.223-1.129-.422-1.671-.647a37.49,37.49,0,0,1-5.16-2.618c-1.995-1.215-3.96-2.477-5.935-3.724-.816-.515-1.623-1.046-2.439-1.563-.206-.131-.427-.237-.7-.388-.369,1.4-.691,2.749-1.086,4.077s-.843,2.671-1.316,3.988-.994,2.619-1.518,3.918-1.075,2.58-1.625,3.894a2.524,2.524,0,0,0,1.2.522,28.227,28.227,0,0,1,4.433,1.725c1.142.568,2.263,1.181,3.368,1.819.854.493.939.755.625,1.686-.726,2.153-1.461,4.3-2.22,6.443-.391,1.1-.78,1.263-1.836.8-.57-.249-1.119-.547-1.675-.826a26.506,26.506,0,0,0-6.569-2.369c-.426-.088-.859-.151-1.291-.2a.442.442,0,0,0-.562.362,8.3,8.3,0,0,0-.2.91q-.37,2.067-.733,4.136a3.189,3.189,0,0,0-.058.369.588.588,0,0,0,.485.689c.18.05.364.084.548.116a17.283,17.283,0,0,1,5.641,2.157,37.789,37.789,0,0,1,4.532,3.131c.977.773,1.923,1.584,2.881,2.381.143.119.277.25.41.381a.77.77,0,0,1,.156.943,4.438,4.438,0,0,1-.331.563c-1.519,2.324-3.237,4.5-4.963,6.668a2.993,2.993,0,0,1-.88.773c-.119-.154-.233-.287-.331-.431a16.344,16.344,0,0,0-2.233-2.632,28.41,28.41,0,0,0-4.26-3.339,17.559,17.559,0,0,0-5.073-2.094,33.614,33.614,0,0,0-4.748-1c-.185-.022-.366-.073-.549-.113a.868.868,0,0,1-.73-.752,16.012,16.012,0,0,1-.317-2.213c-.043-2.148-.1-4.3,0-6.444a39.991,39.991,0,0,1,3.447-15.014q2.436-5.3,4.85-10.617c.64-1.418,1.268-2.845,1.815-4.3a23.806,23.806,0,0,0,1.516-10.173A15.063,15.063,0,0,1,112.643,83.131Z" transform="translate(30.838 -77.959)" fill="#fcf5dd"/>
      <path id="Trazado_6" data-name="Trazado 6" d="M-281.673,113.456c.4-.112.7-.187.992-.283a65.932,65.932,0,0,1,9.512-2.339,54.6,54.6,0,0,1,8.089-.738,23.713,23.713,0,0,1,2.515.175,2.535,2.535,0,0,1,.547.186,2.549,2.549,0,0,1-.035.479A30.606,30.606,0,0,0-261.2,119.7a2.721,2.721,0,0,1-.039.327,2.2,2.2,0,0,1-1.042.244c-1.77.135-3.544.225-5.31.408a63.452,63.452,0,0,0-9.825,1.771,25.828,25.828,0,0,0-7.854,3.615c-.307.207-.623.4-.887.569a1,1,0,0,1-.715-.515,2.087,2.087,0,0,1-.216-.413c-.955-2.466-1.979-4.908-2.7-7.46a34.486,34.486,0,0,1-1.1-6.243c-.282-3.105-.3-6.219-.346-9.333a47.482,47.482,0,0,0-1.327-10.821,29.852,29.852,0,0,0-3.393-8.36,22.775,22.775,0,0,0-7.372-7.555c-.6-.382-1.256-.684-1.884-1.026-.271-.148-.537-.3-.825-.469a2.082,2.082,0,0,1,.636-1.033,24.937,24.937,0,0,1,10.541-6.678,3,3,0,0,1,1.653-.147,3.179,3.179,0,0,1,1.514.877,18.868,18.868,0,0,1,2.319,2.8,31.471,31.471,0,0,1,4.107,8.656,44.442,44.442,0,0,1,1.518,7.3c.424,3.339.641,6.693.752,10.055.112,3.392.21,6.785.373,10.176.07,1.459.28,2.911.443,4.365.073.649.176,1.295.284,1.939A5.426,5.426,0,0,0-281.673,113.456Z" transform="translate(358.56 -64.593)" fill="#fcf5dd"/>
      <path id="Trazado_7" data-name="Trazado 7" d="M-243.622,396.006c.03-.446.054-.655.056-.864.018-2.274.05-4.549.043-6.823a34.258,34.258,0,0,0-1.826-10.917c-.617-1.828-1.255-3.652-1.955-5.449-.485-1.246-1.09-2.444-1.644-3.663-.142-.312-.307-.614-.431-.932-.192-.5-.089-.734.394-.981a3.716,3.716,0,0,1,.431-.181,17.307,17.307,0,0,1,5.485-1.035,6.505,6.505,0,0,1,.746.043,2.336,2.336,0,0,1,1.982,1.366,6.111,6.111,0,0,1,.52,1.4,20.689,20.689,0,0,1,.417,2.578c.153,1.768.253,3.542.359,5.314a8.531,8.531,0,0,0,2.019,5.122c.522.62,1.037,1.245,1.57,1.855a9.518,9.518,0,0,1,1.875,3.415,22.427,22.427,0,0,1,.915,4.287c.216,1.856.383,3.717.572,5.576.022.217.037.435.07.65a1.807,1.807,0,0,0,1.1,1.51,3.582,3.582,0,0,1,1.738,1.758,11.832,11.832,0,0,1,1.2,4.1c.144,1.143.265,2.289.4,3.433.041.34.092.68.163,1.014a2.942,2.942,0,0,0,.937,1.686,7.825,7.825,0,0,1,2.586,5.617c.108,1.241.168,2.487.2,3.732a9.837,9.837,0,0,0,.834,3.992,4.065,4.065,0,0,1,.177.584c-.2.2-.39.181-.525.033a10.393,10.393,0,0,1-.95-1.143,4.347,4.347,0,0,1-.618-1.653c-.267-1.407-.522-2.816-.783-4.224-.051-.276-.1-.551-.163-.825a3.3,3.3,0,0,0-1.616-2.3,4.236,4.236,0,0,1-2.182-3.192c-.451-2.548-1.2-5.025-1.846-7.525a2.92,2.92,0,0,0-1.424-1.988,5.081,5.081,0,0,1-2.477-3.145,24.732,24.732,0,0,1-.56-2.455c-.323-1.618-.6-3.246-.944-4.859a14.989,14.989,0,0,0-1.978-4.815,4.837,4.837,0,0,0-.559-.744c-.266-.285-.361-.291-.94-.255a3.376,3.376,0,0,0-.015,1.652c.14.986.31,1.968.491,2.947a21.966,21.966,0,0,1,.4,4.085c-.006,1.464-.02,2.929.021,4.392a19.233,19.233,0,0,0,.244,2.694,9.876,9.876,0,0,0,1.53,3.687c.406.628.825,1.247,1.229,1.876.181.282.337.58.5.869-.255.2-.4.015-.533-.069a27.842,27.842,0,0,1-8.975-8.718c-.228-.372-.462-.74-.689-1.112a18.116,18.116,0,0,0-4.7-5.016,3.2,3.2,0,0,0-.433-.239c-.247.113-.212.288-.208.43a16.6,16.6,0,0,0,1.109,5.56,3.08,3.08,0,0,0,1.2,1.507c.26.171.526.335.8.479a6.141,6.141,0,0,1,2.735,2.85,13.127,13.127,0,0,1,.736,1.914c.576,1.939,1.108,3.892,1.675,5.834.227.776.51,1.536.751,2.309a3.178,3.178,0,0,0,1.542,1.915,5.4,5.4,0,0,1,2.549,3.322c.545,1.754,1.073,3.513,1.62,5.266q1.461,4.68,2.937,9.356c.046.147.089.294.155.51-.17.026-.346.11-.426.055a4.16,4.16,0,0,1-.773-.658,2.593,2.593,0,0,1-.425-.721c-1.182-2.847-2.367-5.692-3.521-8.549-.384-.952-.665-1.944-1.026-2.906a13.566,13.566,0,0,0-.731-1.613,2.123,2.123,0,0,0-1.987-1.169c-.124,0-.249.013-.374.01a2.079,2.079,0,0,1-1.735-.943,4.387,4.387,0,0,1-.247-.4,30.281,30.281,0,0,1-3.588-9.279,20.11,20.11,0,0,0-.9-2.945,2.506,2.506,0,0,0-1.762-1.67,4.713,4.713,0,0,1-3.127-2.853,21.883,21.883,0,0,1-1.449-4.818c-.254-1.282-.464-2.575-.761-3.847a18.047,18.047,0,0,0-.726-2.115,4,4,0,0,0-.35-.658,1.047,1.047,0,0,0-1.173-.571,2.211,2.211,0,0,1-1.971-.62,5.582,5.582,0,0,1-1.757-2.594c-.824-2.613-1.667-5.219-2.5-7.83a4.516,4.516,0,0,1-.186-.817,1.9,1.9,0,0,1,.714-1.83,20.632,20.632,0,0,1,3.628-2.292,1.975,1.975,0,0,1,.44-.151.957.957,0,0,1,1.122.465,5.238,5.238,0,0,1,.477,1.11c.275.957.543,1.919.752,2.892a9.992,9.992,0,0,0,3.906,6.067c.9.675,1.754,1.4,2.623,2.109a11.932,11.932,0,0,1,3.424,4.491c.427.969.869,1.931,1.311,2.893a20.909,20.909,0,0,0,2.3,3.623A7.714,7.714,0,0,0-243.622,396.006Z" transform="translate(325.589 -305.046)" fill="#fcf5dd"/>
      <path id="Trazado_8" data-name="Trazado 8" d="M238.182,158.135c-.245.3-.391.5-.56.676a34.353,34.353,0,0,0-7.4,12.114c-1.306,3.569-2.411,7.2-3.5,10.839a83.269,83.269,0,0,1-3.24,9.151,48.933,48.933,0,0,1-3.556,6.672c-.714,1.133-1.436,2.261-2.154,3.392q-.175.276-.343.557a.7.7,0,0,0,.054.867c.235.29.475.577.718.862.3.356.616.7.915,1.063a16.559,16.559,0,0,0,5.467,4.305c.2.1.383.208.571.317a1.7,1.7,0,0,1,.2.174c-.052.2-.1.433-.176.66a19.461,19.461,0,0,0-.877,7.745c.019.248.059.494.088.742s.055.49.089.791a3.135,3.135,0,0,1-.646.1,7.44,7.44,0,0,1-2.263-.54,12.977,12.977,0,0,1-1.778-.82,33.68,33.68,0,0,1-9.736-8.342c-.038-.049-.081-.1-.115-.147a51.13,51.13,0,0,0-5.139-6.17,2.124,2.124,0,0,1-.164-.234,2.1,2.1,0,0,1,.585-.936,63.385,63.385,0,0,0,6.816-10.37,70.826,70.826,0,0,0,5.339-13.529c1.1-3.862,2.3-7.7,3.745-11.446a45.054,45.054,0,0,1,6.6-11.669c.23-.294.471-.581.709-.869a.818.818,0,0,1,1.075-.276c.056.027.118.041.175.065a64.333,64.333,0,0,1,7.412,3.544C237.431,157.618,237.755,157.854,238.182,158.135Z" transform="translate(-52.613 -134.793)" fill="#fcf5dd"/>
      <path id="Trazado_9" data-name="Trazado 9" d="M-41.109,374.117c.075.551.137,1.1.226,1.654.33,2.028.695,4.05,1,6.082a11.411,11.411,0,0,1-.233,4.634,22.351,22.351,0,0,0-.712,4.228,16.515,16.515,0,0,0,.14,3.728,17.434,17.434,0,0,1-.8,8.466,17.709,17.709,0,0,0-.819,3.444,15.069,15.069,0,0,0,.139,4.186q.147.969.278,1.941a3.16,3.16,0,0,1,0,.433.507.507,0,0,1-.7-.155,2.73,2.73,0,0,1-.338-.557A12.634,12.634,0,0,1-44,403.4q.389-1.635.783-3.268a10.1,10.1,0,0,0,0-4.446c-.259-1.281-.505-2.565-.773-3.844a10.754,10.754,0,0,1-.044-4.545,12.2,12.2,0,0,0-.267-6c-.343-1.229-.657-2.466-1.005-3.693a11.516,11.516,0,0,1-.379-3.515c.053-1.806.11-3.611.183-5.416a13.1,13.1,0,0,0-.458-4.16c-.445-1.555-.906-3.107-1.406-4.646-.249-.767-.6-1.5-.906-2.251-.094-.23-.208-.453-.282-.69a.415.415,0,0,1,.332-.565,3.026,3.026,0,0,1,.735-.1,13.216,13.216,0,0,1,6.428,1.717,2.8,2.8,0,0,1,1.4,1.9c.336,1.455.656,2.914.978,4.373.308,1.4.584,2.8.922,4.193A19.192,19.192,0,0,0-36.2,372.63a20.2,20.2,0,0,1,2.147,8.161,58.954,58.954,0,0,0,1.768,11.33c.32,1.267.691,2.521,1.045,3.779a5.638,5.638,0,0,0,.226.554,1.93,1.93,0,0,0,.311-.284,14.624,14.624,0,0,0,1.582-3.063,7.371,7.371,0,0,0,.248-3.956c-.472-2.413-.934-4.828-1.364-7.249a12.728,12.728,0,0,1,.229-5.1c.381-1.669.73-3.344,1.082-5.019a12.566,12.566,0,0,0-.232-6.191c-.366-1.253-.8-2.49-1.244-3.716a8.222,8.222,0,0,0-2.28-3.48.635.635,0,0,1-.1-.157c.093-.252.311-.155.473-.145,1.244.077,2.486.171,3.73.253a27.511,27.511,0,0,0,4.389-.021,6.75,6.75,0,0,1,2.138.113c.544.123.755.356.751.9,0,.591-.058,1.181-.1,1.772a43.38,43.38,0,0,1-2.053,9.943c-.718,2.35-1.379,4.719-2.034,7.088a12.454,12.454,0,0,0-.38,4.445c.16,1.8.295,3.6.519,5.391a13.805,13.805,0,0,1-1.3,7.9c-.57,1.176-1.167,2.343-1.83,3.468a4.654,4.654,0,0,0-.595,3.4c.211,1.1.281,2.223.408,3.336a1.157,1.157,0,0,1-.024.257.331.331,0,0,1-.507.024,5.767,5.767,0,0,1-.576-.608,30.594,30.594,0,0,1-7.092-15.9c-.226-1.57-.356-3.155-.539-4.732-.172-1.484-.336-2.969-.54-4.448a8.053,8.053,0,0,0-.764-2.394c-.623-1.289-1.268-2.568-1.914-3.846a2.41,2.41,0,0,0-.327-.4Z" transform="translate(151.269 -297.877)" fill="#fcf5dd"/>
      <path id="Trazado_10" data-name="Trazado 10" d="M-189.314,58.114a4.395,4.395,0,0,1,1.7-.7,32.983,32.983,0,0,1,8.164-.785,2.779,2.779,0,0,1,2.524,1.468A27.368,27.368,0,0,1-173.307,69a62.422,62.422,0,0,1,.349,8.207,57.408,57.408,0,0,1-.839,8.263c-.057.337-.1.677-.134,1.017a1.135,1.135,0,0,0,.057.3c.28.107.547-.033.813-.052.248-.018.493-.068.739-.111A47,47,0,0,0-159.2,82.159c.331-.167.665-.33.977-.485a.472.472,0,0,1,.349.6,3.382,3.382,0,0,1-.227.611c-1.528,3.681-3.161,7.314-4.972,10.867a2.941,2.941,0,0,1-1.849,1.576,33.54,33.54,0,0,1-7.207,1.5c-2.514.215-5.027.447-7.541.661a17.188,17.188,0,0,1-3.824-.1c-.682-.094-.933-.313-1.034-.987a7.138,7.138,0,0,1-.082-1.766c.294-3.037.555-6.077.843-9.115.2-2.077.459-4.148.62-6.227a34.073,34.073,0,0,0-.211-8.383,25.944,25.944,0,0,0-4.3-10.449c-.406-.59-.839-1.161-1.255-1.744C-189.039,58.554-189.149,58.368-189.314,58.114Z" transform="translate(264.579 -56.614)" fill="#fcf5dd"/>
      <path id="Trazado_11" data-name="Trazado 11" d="M75.709,360.051a2.467,2.467,0,0,1,1.057.82,23.264,23.264,0,0,0,4.7,4.385c.855.625,1.727,1.226,2.6,1.828a36.621,36.621,0,0,1,8.127,7.665,10.374,10.374,0,0,1,1.979,3.882,9.614,9.614,0,0,1-.274,5.428,13.656,13.656,0,0,1-3.07,5.075c-.361.387-.731.769-1.127,1.12a11.157,11.157,0,0,0-3.575,6.4c-.288,1.466-.607,2.925-.944,4.381a10.741,10.741,0,0,1-3.013,5.488,11.124,11.124,0,0,1-3,2.04q-1.479.695-2.978,1.347a14.109,14.109,0,0,0-5.537,4.329,9.218,9.218,0,0,0-1.973,6.732c.025.275.03.552.051.951a2.213,2.213,0,0,1-.326-.321,7.672,7.672,0,0,1-.683-6.9c.419-1.105.869-2.2,1.315-3.3a22.327,22.327,0,0,0,1.7-8.555,28.973,28.973,0,0,1,1.281-8.183q.6-2.062,1.25-4.108a12.893,12.893,0,0,0,.585-5.159c-.15-1.581-.267-3.165-.391-4.748a18.962,18.962,0,0,1,.624-6.749,34.371,34.371,0,0,0,1.237-9.51c0-.841,0-1.682.013-2.523A4.553,4.553,0,0,1,75.709,360.051Zm-2.075,47.44a2.735,2.735,0,0,0,.61-.045,10.194,10.194,0,0,0,1.658-.617,12.3,12.3,0,0,0,6.508-7.909c.546-2.141,1.109-4.279,1.627-6.427a10.806,10.806,0,0,1,1.853-3.945c.3-.4.627-.781.883-1.206a14.8,14.8,0,0,0,1.159-2.127,8.24,8.24,0,0,0-1.143-8.465,8.978,8.978,0,0,0-1.13-1.242c-1.292-1.173-2.606-2.321-3.918-3.471a6.668,6.668,0,0,0-.63-.434,2.924,2.924,0,0,0-.336.493c-.278.692-.583,1.378-.79,2.092a24.289,24.289,0,0,0-.849,7.3,21.406,21.406,0,0,1-1.672,8.93c-.6,1.4-1.18,2.814-1.791,4.211a15.369,15.369,0,0,0-1.261,7.107,13.633,13.633,0,0,1-.6,4.981C73.742,406.944,73.705,407.181,73.634,407.491Z" transform="translate(58.045 -300.932)" fill="#fcf5dd"/>
      <path id="Trazado_12" data-name="Trazado 12" d="M-108.111,400.278a2.977,2.977,0,0,1-.154-.506,19.024,19.024,0,0,0-1.839-6.336c-.171-.367-.347-.732-.511-1.1a8.611,8.611,0,0,1-.818-3.8,10.637,10.637,0,0,0-1-4.8,12.44,12.44,0,0,1-1.152-4.687,10.317,10.317,0,0,1,0-1.212,8.578,8.578,0,0,0-1.253-5.273,23.912,23.912,0,0,1-2.432-5.643c-.315-1.041-.663-2.076-1.063-3.087a18.5,18.5,0,0,0-2.954-4.956,4.86,4.86,0,0,1-.55-.752.791.791,0,0,1,.547-1.283,12.375,12.375,0,0,1,1.659-.262c1.146-.125,2.3-.214,3.441-.342a1.4,1.4,0,0,1,1.538.8c.619,1.187,1.261,2.363,1.861,3.559a4.761,4.761,0,0,1,.44,3.266,9.731,9.731,0,0,0,.76,6.194c.437,1,.845,2.009,1.24,3.023a6.831,6.831,0,0,1,.388,4.119,6.938,6.938,0,0,0,.663,4.712,18.713,18.713,0,0,1,.839,2.175,5.263,5.263,0,0,1-.039,3.573,6.78,6.78,0,0,0-.35,3.309,11.788,11.788,0,0,0,.3,1.366c.3,1.144.613,2.285.918,3.427a8.961,8.961,0,0,1,.241,3.151A1.527,1.527,0,0,1-108.111,400.278Z" transform="translate(210.377 -297.844)" fill="#fcf5dd"/>
      <path id="Trazado_13" data-name="Trazado 13" d="M399.938,148.091a5.128,5.128,0,0,1-2.658,4.622,23.458,23.458,0,0,1-2.357,1.12,9.656,9.656,0,0,0-2.931,1.788,1.079,1.079,0,0,1-.386.247.4.4,0,0,1-.336-.07.366.366,0,0,1-.1-.323,3.031,3.031,0,0,1,1.33-1.728,4.78,4.78,0,0,0,1.457-1.152,1.975,1.975,0,0,0,.374-2.631,19.267,19.267,0,0,1-.869-1.855,4.337,4.337,0,0,1,.777-4.462,2.893,2.893,0,0,1,3.019-1.017,2.4,2.4,0,0,1,1.928,1.819c.217.843.426,1.688.611,2.539C399.882,147.38,399.9,147.786,399.938,148.091Z" transform="translate(-202.798 -125.803)" fill="#fcf5dd"/>
    </g>
  </g>
</svg>
