<svg xmlns="http://www.w3.org/2000/svg" width="776" height="2005" viewBox="0 0 776 2005">
  <g id="Grupo_115" data-name="Grupo 115" transform="translate(2.445 2.452)">
    <g id="Grupo_114" data-name="Grupo 114" transform="translate(-0.445 -0.452)">
      <g id="Grupo_40" data-name="Grupo 40" transform="translate(0 0)">
        <rect id="Rectángulo_23" data-name="Rectángulo 23" width="722.943" height="1953.455" transform="translate(24.139 23.204)" fill="none" stroke="#fcf5dd" stroke-miterlimit="10" stroke-width="4"/>
        <rect id="Rectángulo_24" data-name="Rectángulo 24" width="23" height="23" fill="none" stroke="#fcf5dd" stroke-miterlimit="10" stroke-width="4"/>
        <rect id="Rectángulo_25" data-name="Rectángulo 25" width="23" height="23" transform="translate(0 1978)" fill="none" stroke="#fcf5dd" stroke-miterlimit="10" stroke-width="4"/>
        <rect id="Rectángulo_26" data-name="Rectángulo 26" width="23" height="23" transform="translate(749)" fill="none" stroke="#fcf5dd" stroke-miterlimit="10" stroke-width="4"/>
        <rect id="Rectángulo_27" data-name="Rectángulo 27" width="23" height="23" transform="translate(749 1978)" fill="none" stroke="#fcf5dd" stroke-miterlimit="10" stroke-width="4"/>
      </g>
      <path id="Trazado_24" data-name="Trazado 24" d="M777.442,2029.01a4.115,4.115,0,0,1,.5.138V342.817a4.243,4.243,0,0,1-.5.138c-11.078,0-20.058-49.336-20.058-110.2,0-.931.021-1.829.025-2.755H123.058c0,60.863-8.98,110.2-20.058,110.2V2026.255c11.078,0,20.058,49.337,20.058,110.2H757.409C757.678,2076.88,766.534,2029.01,777.442,2029.01Z" transform="translate(-55.361 -184.296)" fill="none" stroke="#fcf5dd" stroke-miterlimit="10" stroke-width="2"/>
    </g>
  </g>
</svg>
