<svg xmlns="http://www.w3.org/2000/svg" width="1042" height="777" viewBox="0 0 1042 777">
  <g id="Grupo_97" data-name="Grupo 97" transform="translate(-54.196 -183.191)">
    <g id="Grupo_40" data-name="Grupo 40" transform="translate(56.229 185.6)">
      <rect id="Rectángulo_23" data-name="Rectángulo 23" width="991.139" height="727.351" transform="translate(23.271 21.9)" fill="none" stroke="#fcf5dd" stroke-miterlimit="10" stroke-width="4"/>
      <rect id="Rectángulo_24" data-name="Rectángulo 24" width="23" height="23" transform="translate(-0.033 -0.408)" fill="none" stroke="#fcf5dd" stroke-miterlimit="10" stroke-width="4"/>
      <rect id="Rectángulo_25" data-name="Rectángulo 25" width="23" height="23" transform="translate(-0.033 749.592)" fill="none" stroke="#fcf5dd" stroke-miterlimit="10" stroke-width="4"/>
      <rect id="Rectángulo_26" data-name="Rectángulo 26" width="23" height="23" transform="translate(1014.967 -0.408)" fill="none" stroke="#fcf5dd" stroke-miterlimit="10" stroke-width="4"/>
      <rect id="Rectángulo_27" data-name="Rectángulo 27" width="23" height="23" transform="translate(1014.967 749.592)" fill="none" stroke="#fcf5dd" stroke-miterlimit="10" stroke-width="4"/>
    </g>
    <path id="Trazado_24" data-name="Trazado 24" d="M1045.439,872.007c.237,0,.465.041.7.049v-601.8c-.235.008-.464.049-.7.049-15.48,0-28.028-17.606-28.028-39.327,0-.332.029-.653.035-.983H131.028c0,21.72-12.548,39.327-28.028,39.327v601.7c15.48,0,28.028,17.607,28.028,39.327h886.418C1017.821,889.091,1030.2,872.007,1045.439,872.007Z" transform="translate(0)" fill="none" stroke="#fcf5dd" stroke-miterlimit="10" stroke-width="2"/>
  </g>
</svg>
