<svg xmlns="http://www.w3.org/2000/svg" width="595" height="1900" viewBox="0 0 595 1900">
  <g id="Grupo_126" data-name="Grupo 126" transform="translate(-267 -4354)">
    <g id="Grupo_116" data-name="Grupo 116" transform="translate(269 4356)">
      <g id="Grupo_115" data-name="Grupo 115">
        <g id="Grupo_114" data-name="Grupo 114" transform="translate(0 0)">
          <g id="Grupo_40" data-name="Grupo 40" transform="translate(0 0)">
            <rect id="Rectángulo_23" data-name="Rectángulo 23" width="543.812" height="1848.534" transform="translate(23.694 22.752)" fill="none" stroke="#fcf5dd" stroke-miterlimit="10" stroke-width="4"/>
            <rect id="Rectángulo_24" data-name="Rectángulo 24" width="23" height="23" fill="none" stroke="#fcf5dd" stroke-miterlimit="10" stroke-width="4"/>
            <rect id="Rectángulo_25" data-name="Rectángulo 25" width="23" height="23" transform="translate(0 1873)" fill="none" stroke="#fcf5dd" stroke-miterlimit="10" stroke-width="4"/>
            <rect id="Rectángulo_26" data-name="Rectángulo 26" width="23" height="23" transform="translate(568)" fill="none" stroke="#fcf5dd" stroke-miterlimit="10" stroke-width="4"/>
            <rect id="Rectángulo_27" data-name="Rectángulo 27" width="23" height="23" transform="translate(568 1873)" fill="none" stroke="#fcf5dd" stroke-miterlimit="10" stroke-width="4"/>
          </g>
          <path id="Trazado_24" data-name="Trazado 24" d="M598.444,1930c.125,0,.245.109.368.13V336.608c-.124.021-.244.13-.368.13-8.138,0-14.734-46.621-14.734-104.135,0-.88.015-1.729.018-2.6H117.734c0,57.514-6.6,104.135-14.734,104.135V1927.4c8.138,0,14.734,46.621,14.734,104.136H583.728C583.925,1975.238,590.431,1930,598.444,1930Z" transform="translate(-55.806 -184.748)" fill="none" stroke="#fcf5dd" stroke-miterlimit="10" stroke-width="2"/>
        </g>
      </g>
    </g>
  </g>
</svg>
