<svg xmlns="http://www.w3.org/2000/svg" width="774.639" height="253.96" viewBox="0 0 774.639 253.96">
  <g id="Grupo_114" data-name="Grupo 114" transform="translate(-249.019 -276.426)">
    <g id="Grupo_40" data-name="Grupo 40">
      <rect id="Rectángulo_23" data-name="Rectángulo 23" width="745.666" height="223.258" transform="translate(263.506 291.252)" fill="none" stroke="#ce3945" stroke-width="2.317"/>
      <rect id="Rectángulo_24" data-name="Rectángulo 24" width="12.85" height="13.815" transform="translate(250.178 277.585)" fill="none" stroke="#ce3945" stroke-width="2.317"/>
      <rect id="Rectángulo_25" data-name="Rectángulo 25" width="12.85" height="13.815" transform="translate(250.358 515.412)" fill="none" stroke="#ce3945" stroke-width="2.317"/>
      <rect id="Rectángulo_26" data-name="Rectángulo 26" width="12.85" height="13.815" transform="translate(1009.47 277.585)" fill="none" stroke="#ce3945" stroke-width="2.317"/>
      <rect id="Rectángulo_27" data-name="Rectángulo 27" width="12.85" height="13.815" transform="translate(1009.65 515.412)" fill="none" stroke="#ce3945" stroke-width="2.317"/>
    </g>
    <path id="Trazado_24" data-name="Trazado 24" d="M995.039,465.441c.181,0,.355.037.534.044l-.18-124.648c-.179.007-.353.044-.534.044-11.8,0-21.362-15.774-21.362-35.233,0-.3.022-.585.027-.881H297.908c0,19.462-9.564,35.233-21.362,35.233l.18,124.561c11.8,0,21.362,15.773,21.362,35.233H973.7C973.99,480.746,983.421,465.441,995.039,465.441Z" fill="none" stroke="#ce3945" stroke-width="2.317"/>
  </g>
</svg>
